<mxfile host="app.diagrams.net" modified="2022-03-30T09:27:18.048Z" agent="5.0 (Windows NT 10.0; Win64; x64) AppleWebKit/537.36 (KHTML, like Gecko) Chrome/99.0.4844.82 Safari/537.36" etag="dFS7NOKfbw2sw5yTQD_N" version="16.4.0" type="github">
  <diagram id="FAG-OAd4JH-U61BuMoHy" name="Page-1">
    <mxGraphModel dx="1422" dy="762" grid="1" gridSize="10" guides="1" tooltips="1" connect="1" arrows="1" fold="1" page="1" pageScale="1" pageWidth="1169" pageHeight="827" math="0" shadow="0">
      <root>
        <mxCell id="0" />
        <mxCell id="1" parent="0" />
        <mxCell id="3D_szyI2aw8QGpEEP6Oy-4" style="edgeStyle=orthogonalEdgeStyle;rounded=0;orthogonalLoop=1;jettySize=auto;html=1;entryX=0.5;entryY=0;entryDx=0;entryDy=0;" edge="1" parent="1" source="3D_szyI2aw8QGpEEP6Oy-1" target="3D_szyI2aw8QGpEEP6Oy-2">
          <mxGeometry relative="1" as="geometry" />
        </mxCell>
        <mxCell id="3D_szyI2aw8QGpEEP6Oy-5" style="edgeStyle=orthogonalEdgeStyle;rounded=0;orthogonalLoop=1;jettySize=auto;html=1;entryX=0.5;entryY=0;entryDx=0;entryDy=0;" edge="1" parent="1" source="3D_szyI2aw8QGpEEP6Oy-1" target="3D_szyI2aw8QGpEEP6Oy-3">
          <mxGeometry relative="1" as="geometry" />
        </mxCell>
        <mxCell id="3D_szyI2aw8QGpEEP6Oy-1" value="Main Class" style="rounded=1;whiteSpace=wrap;html=1;" vertex="1" parent="1">
          <mxGeometry x="410" y="140" width="120" height="60" as="geometry" />
        </mxCell>
        <mxCell id="3D_szyI2aw8QGpEEP6Oy-2" value="Visual" style="rounded=1;whiteSpace=wrap;html=1;" vertex="1" parent="1">
          <mxGeometry x="255" y="330" width="120" height="60" as="geometry" />
        </mxCell>
        <mxCell id="3D_szyI2aw8QGpEEP6Oy-3" value="DB" style="rounded=1;whiteSpace=wrap;html=1;" vertex="1" parent="1">
          <mxGeometry x="565" y="330" width="120" height="60" as="geometry" />
        </mxCell>
      </root>
    </mxGraphModel>
  </diagram>
</mxfile>
